<?xml version="1.0" standalone="no"?>
<!DOCTYPE svg PUBLIC "-//W3C//DTD SVG 20010904//EN"
 "http://www.w3.org/TR/2001/REC-SVG-20010904/DTD/svg10.dtd">
<svg version="1.0" xmlns="http://www.w3.org/2000/svg"
 width="500.000000pt" height="500.000000pt" viewBox="0 0 500.000000 500.000000"
 preserveAspectRatio="xMidYMid meet">

<g transform="translate(0.000000,500.000000) scale(0.100000,-0.100000)"
fill="#000000" stroke="none">
<path d="M971 3860 c-36 -9 -78 -36 -94 -62 -14 -22 15 -81 48 -96 14 -7 57
-12 95 -12 76 0 82 -6 61 -63 l-10 -24 -83 14 c-150 26 -163 26 -196 9 -47
-24 -55 -46 -42 -114 15 -83 61 -144 245 -327 124 -123 168 -173 187 -215 54
-115 44 -170 -40 -231 -56 -40 -235 -194 -276 -238 -17 -17 -33 -31 -37 -31
-10 0 -23 59 -20 90 2 13 16 46 31 73 23 41 26 54 18 73 -15 33 -43 30 -86
-11 -20 -19 -49 -44 -63 -55 -55 -41 -75 -130 -43 -191 8 -17 31 -48 50 -69
l35 -38 -20 -33 c-25 -42 -34 -101 -24 -159 8 -44 9 -45 47 -45 37 0 40 2 54
44 40 120 185 179 333 135 53 -16 84 -41 160 -133 31 -36 76 -42 103 -12 14
15 16 29 11 63 -9 62 7 98 44 98 30 0 81 -47 81 -75 0 -8 9 -30 21 -49 19 -32
25 -36 64 -36 50 0 50 1 60 101 10 93 -9 224 -60 422 -49 191 -95 331 -154
465 -65 147 -102 279 -95 339 10 83 16 84 83 20 53 -51 64 -57 101 -57 36 0
48 6 81 39 22 21 39 47 39 58 0 47 -153 226 -203 239 -46 11 -123 -31 -194
-106 -47 -48 -63 -59 -63 -45 1 11 7 31 15 45 19 33 19 120 0 147 -8 11 -25
23 -37 26 -13 3 -41 12 -63 21 -43 16 -109 19 -164 6z m188 -63 c37 -18 43
-60 19 -126 -23 -62 -26 -67 -33 -59 -3 2 0 18 5 35 7 19 7 38 1 55 -11 29
-38 37 -148 45 -63 4 -73 7 -73 23 0 11 8 24 18 29 24 15 182 13 211 -2z m368
-139 c26 -33 58 -72 71 -85 39 -42 26 -83 -25 -83 -28 0 -49 12 -110 62 -86
71 -97 71 -125 -8 -38 -109 -15 -235 87 -469 62 -140 133 -327 159 -415 32
-108 57 -393 40 -457 -8 -29 -24 -30 -24 -3 0 56 -88 150 -141 150 -40 0 -88
-29 -95 -57 -7 -26 -1 -90 10 -115 16 -36 -19 -17 -53 27 -18 25 -63 66 -100
92 l-66 48 -87 -1 c-147 -3 -248 -51 -299 -143 l-20 -36 4 41 c6 51 45 132 98
201 57 74 194 202 269 253 124 82 150 118 150 202 0 102 -89 241 -228 356
-120 99 -181 163 -209 216 -20 39 -22 50 -11 57 7 5 18 9 24 9 6 0 32 16 57
36 46 36 47 36 119 30 40 -4 115 -9 166 -12 82 -5 92 -4 92 11 0 9 31 48 69
86 92 92 110 93 178 7z m-697 -97 c-27 -22 -36 -26 -38 -14 -7 28 7 43 40 43
l32 0 -34 -29z m-59 -970 c-26 -50 -26 -84 -1 -138 10 -24 16 -43 12 -43 -3 0
-21 14 -39 32 -50 48 -46 96 15 177 32 43 40 26 13 -28z"/>
<path d="M2030 3023 c0 -6 7 -13 15 -17 12 -4 15 -27 15 -116 0 -91 -3 -110
-15 -110 -8 0 -15 -4 -15 -10 0 -11 90 -13 139 -4 47 10 89 56 96 107 8 52
-12 108 -47 131 -28 18 -188 34 -188 19z m161 -42 c26 -26 29 -36 29 -91 0
-75 -27 -110 -85 -110 l-35 0 0 115 0 115 31 0 c20 0 40 -10 60 -29z"/>
<path d="M3470 3017 c-21 -11 -25 -20 -25 -57 0 -43 2 -46 58 -83 50 -33 58
-42 55 -65 -3 -24 -8 -27 -45 -30 -40 -3 -43 -1 -40 20 1 17 -4 24 -20 26 -31
5 -31 -31 -1 -52 42 -30 131 -14 144 26 12 38 -6 68 -62 104 -30 19 -58 42
-61 51 -10 26 11 48 48 48 29 0 34 -3 34 -25 0 -31 29 -34 33 -3 6 43 -64 67
-118 40z"/>
<path d="M2772 2941 c-8 -5 -33 -6 -57 -3 -34 3 -47 0 -64 -17 -24 -24 -27
-63 -6 -81 17 -14 10 -66 -13 -93 -22 -25 -2 -63 38 -72 73 -16 141 25 125 74
-6 21 -15 24 -88 36 -44 7 -41 20 7 29 43 8 60 29 59 73 -1 27 2 33 14 29 22
-9 36 3 22 20 -13 16 -19 17 -37 5z m-44 -23 c17 -17 15 -63 -3 -78 -37 -30
-78 24 -49 67 16 26 34 29 52 11z m28 -172 c15 -12 17 -18 8 -33 -22 -36 -104
-28 -104 11 0 12 3 26 7 29 12 12 69 7 89 -7z"/>
<path d="M3041 2941 c-7 -5 -31 -6 -52 -4 -52 7 -89 -17 -89 -57 0 -15 7 -36
16 -45 12 -11 14 -19 6 -27 -6 -6 -8 -17 -5 -24 3 -7 -2 -21 -11 -29 -55 -56
44 -112 123 -70 58 30 37 95 -31 95 -31 0 -68 15 -58 23 3 2 24 9 47 16 45 12
61 39 50 81 -4 17 -1 19 20 14 20 -6 24 -3 21 11 -4 22 -18 28 -37 16z m-47
-27 c19 -18 20 -38 6 -65 -21 -37 -70 -13 -70 35 0 16 26 46 40 46 5 0 16 -7
24 -16z m36 -175 c19 -31 -25 -58 -74 -45 -27 7 -39 28 -29 52 5 13 16 15 51
11 24 -3 48 -11 52 -18z"/>
<path d="M2389 2921 c-20 -16 -24 -29 -24 -71 0 -42 4 -55 24 -71 58 -48 141
-6 141 71 0 77 -83 119 -141 71z m91 -16 c7 -9 13 -33 13 -55 0 -47 -16 -70
-49 -70 -27 0 -44 26 -44 70 0 17 5 40 10 51 13 23 52 25 70 4z"/>
<path d="M3189 2921 c-20 -16 -24 -29 -24 -71 0 -42 4 -55 24 -71 58 -48 141
-6 141 71 0 77 -83 119 -141 71z m91 -16 c7 -9 13 -33 13 -55 0 -47 -16 -70
-49 -70 -27 0 -44 26 -44 70 0 17 5 40 10 51 13 23 52 25 70 4z"/>
<path d="M3680 2931 c0 -5 4 -11 9 -13 6 -1 23 -37 38 -78 37 -96 54 -100 78
-20 10 33 21 57 25 53 4 -4 16 -32 26 -61 12 -35 23 -52 33 -50 8 2 25 34 38
73 13 39 30 75 38 81 24 18 18 24 -25 24 -22 0 -40 -4 -40 -10 0 -5 7 -10 15
-10 8 0 15 -4 15 -8 0 -21 -33 -102 -39 -97 -4 2 -16 31 -26 65 -10 33 -23 60
-30 60 -7 0 -18 -19 -24 -42 -7 -24 -19 -54 -26 -67 -12 -24 -13 -23 -30 29
-13 39 -15 55 -6 58 26 9 8 22 -29 22 -22 0 -40 -4 -40 -9z"/>
<path d="M4088 2929 c-10 -5 -18 -19 -18 -30 0 -14 5 -19 18 -17 9 2 17 10 17
18 0 22 22 32 45 20 32 -17 24 -33 -33 -60 -37 -18 -53 -31 -55 -48 -7 -45 41
-67 90 -41 14 8 23 8 31 0 6 -6 19 -11 28 -11 20 0 45 28 34 38 -4 4 -10 1
-12 -5 -11 -30 -21 -9 -25 51 -2 35 -10 71 -17 80 -15 18 -76 21 -103 5z m82
-93 c0 -50 -61 -76 -68 -29 -2 13 5 27 20 37 32 23 48 20 48 -8z"/>
<path d="M4315 2930 c-3 -5 1 -10 9 -10 14 0 16 -18 16 -115 0 -70 -4 -115
-10 -115 -5 0 -10 -4 -10 -10 0 -5 20 -10 45 -10 25 0 45 5 45 10 0 6 -7 10
-15 10 -11 0 -15 11 -15 40 0 38 1 40 25 34 44 -11 75 4 92 43 17 41 11 87
-14 115 -18 20 -73 24 -90 7 -8 -8 -13 -8 -17 0 -9 14 -53 14 -61 1z m145 -29
c5 -11 10 -34 10 -51 0 -17 -5 -40 -10 -51 -12 -21 -50 -25 -68 -7 -16 16 -16
100 0 116 18 18 56 14 68 -7z"/>
<path d="M1275 1963 c-65 -6 -78 -19 -29 -30 51 -11 378 -10 429 0 34 8 37 10
21 19 -20 11 -332 19 -421 11z"/>
</g>
</svg>
