<?xml version="1.0" standalone="no"?>
<!DOCTYPE svg PUBLIC "-//W3C//DTD SVG 20010904//EN"
 "http://www.w3.org/TR/2001/REC-SVG-20010904/DTD/svg10.dtd">
<svg version="1.0" xmlns="http://www.w3.org/2000/svg"
 width="500.000000pt" height="500.000000pt" viewBox="0 0 500.000000 500.000000"
 preserveAspectRatio="xMidYMid meet">

<g transform="translate(0.000000,500.000000) scale(0.100000,-0.100000)"
fill="#000000" stroke="none">
<path d="M2430 2845 c-16 -19 -4 -35 26 -35 13 0 24 -6 24 -13 0 -8 -14 -11
-45 -9 -44 4 -45 3 -45 -26 0 -24 13 -44 60 -91 33 -33 62 -72 66 -87 6 -23 0
-33 -47 -74 -53 -47 -82 -53 -60 -12 14 27 14 32 -2 32 -33 0 -63 -69 -37 -85
6 -3 10 -26 10 -51 0 -24 2 -44 4 -44 3 0 18 14 34 30 37 37 71 38 110 5 17
-14 35 -25 41 -25 6 0 11 11 11 25 0 32 13 32 38 -2 12 -17 24 -23 32 -18 21
13 4 117 -40 245 -50 145 -52 173 -10 135 21 -19 50 -10 50 15 0 25 -38 70
-59 70 -9 0 -27 -9 -39 -20 l-22 -21 0 29 c0 22 -6 31 -22 36 -38 10 -65 7
-78 -9z m80 -25 c0 -5 -7 -7 -15 -4 -8 4 -15 8 -15 10 0 2 7 4 15 4 8 0 15 -4
15 -10z m109 -34 c16 -16 19 -26 11 -31 -13 -8 -62 34 -54 46 8 14 19 10 43
-15z m-113 -26 c41 0 44 -2 44 -26 0 -14 18 -70 39 -123 21 -53 42 -123 46
-155 l8 -58 -25 16 c-28 19 -58 12 -58 -13 0 -11 -3 -12 -8 -4 -13 20 -63 34
-101 27 -33 -7 -35 -6 -22 9 7 10 10 17 6 17 -4 0 -2 7 5 15 7 8 20 15 29 15
25 0 81 59 81 84 0 25 -23 57 -93 130 -36 39 -44 53 -35 63 6 8 18 11 25 8 8
-3 35 -5 59 -5z"/>
<path d="M2568 2313 c12 -2 32 -2 45 0 12 2 2 4 -23 4 -25 0 -35 -2 -22 -4z"/>
</g>
</svg>
